<?xml version="1.0" encoding="UTF-8"?>
<svg version="1.1" xmlns="http://www.w3.org/2000/svg" width="2924" height="2718">
<path d="M0 0 C1.30130859 1.08667969 1.30130859 1.08667969 2.62890625 2.1953125 C7.55072996 6.44257154 11.86900451 10.9871066 16 16 C16.62519531 16.73734375 17.25039063 17.4746875 17.89453125 18.234375 C39.77502039 44.64632639 53.21824394 78.65636216 53.12830919 113.10932589 C53.13003324 113.98634323 53.13175729 114.86336057 53.13353359 115.7669542 C53.13809272 118.7021579 53.13557007 121.63731184 53.13307858 124.5725174 C53.13491995 126.7087652 53.13719892 128.84501266 53.13987562 130.98125958 C53.14598705 136.8711201 53.14588251 142.76096684 53.14480268 148.65082983 C53.1447301 155.05214438 53.15044566 161.45345413 53.15544754 167.85476637 C53.16360115 179.08195464 53.16776659 190.30914022 53.16966438 201.53633118 C53.17172525 213.58486104 53.17597928 225.63338721 53.18292236 237.68191528 C53.18336004 238.44294786 53.18379771 239.20398044 53.18424864 239.98807461 C53.18649261 243.86879469 53.18877637 247.74951474 53.1910775 251.63023479 C53.19578088 259.58762637 53.20017721 267.54501812 53.20446312 275.50240993 C53.20489485 276.30390586 53.20532657 277.10540179 53.20577138 277.93118548 C53.21563953 296.40449703 53.22229861 314.87780958 53.22887231 333.35112254 C53.23911495 362.0900358 53.25216539 390.82894575 53.26918221 419.56785583 C53.26995157 420.86762536 53.26995157 420.86762536 53.27073647 422.19365286 C53.27700451 432.76273932 53.28340418 443.3318257 53.28984207 453.90091205 C53.29965481 470.02518401 53.30918334 486.14945615 53.31869008 502.27372829 C53.31975747 504.08409975 53.32082552 505.89447122 53.32189423 507.70484268 C53.34708508 550.38742029 53.36973356 593.06999913 53.39138557 635.75257867 C53.39282264 638.58473087 53.39426232 641.41688307 53.39570238 644.24903526 C53.41783178 687.79948638 53.43869373 731.34993789 53.45739746 774.90039062 C53.45820926 776.78829432 53.45902113 778.67619802 53.45983307 780.56410172 C53.46347973 789.04618896 53.46711809 797.5282762 53.47075565 806.01036344 C53.47236909 809.77225265 53.47398337 813.53414185 53.47559757 817.29603106 C53.47680632 820.11449225 53.4780132 822.93295344 53.47921998 825.75141463 C53.49744832 868.28471518 53.51718217 910.81801398 53.5429163 953.35131073 C53.54345804 954.24787141 53.54399979 955.14443209 53.54455795 956.06816127 C53.5559372 974.8785638 53.56770628 993.68896606 53.57999813 1012.49936802 C53.58575429 1021.31239906 53.5914094 1030.12543016 53.59700203 1038.9384613 C53.59755405 1039.80605638 53.59810606 1040.67365146 53.59867481 1041.5675373 C53.6163168 1069.37912702 53.62732061 1097.19071445 53.63458182 1125.00230868 C53.64192659 1153.08156812 53.65529622 1181.16081761 53.67686911 1209.24006993 C53.67986764 1213.14658832 53.68279425 1217.05310677 53.68567657 1220.95962524 C53.68624375 1221.72520804 53.68681093 1222.49079083 53.6873953 1223.2795731 C53.69556059 1234.53121729 53.69823098 1245.78285325 53.69767189 1257.03450012 C53.54992769 1342.03992721 53.54992769 1342.03992721 56 1427 C56.05359123 1428.17762236 56.10718246 1429.35524472 56.16239767 1430.56855261 C60.73941656 1530.38579205 69.53030109 1633.08638034 189.77734375 1884.55859375 C191.2001979 1886.12148275 192.61038725 1887.69605564 194.00390625 1889.28515625 C198.83557259 1894.7769364 203.90175506 1900.00711889 209.0625 1905.1875 C209.7232251 1905.85281738 210.3839502 1906.51813477 211.06469727 1907.20361328 C215.54687152 1911.67190396 220.20147622 1915.8756439 225 1920 C226.09459314 1920.96128036 227.18838826 1921.92347045 228.28125 1922.88671875 C236.8631482 1930.38348859 245.78027105 1937.30741793 255 1944 C255.67933594 1944.495 256.35867188 1944.99 257.05859375 1945.5 C275.25076377 1958.70565839 294.33747838 1970.1302125 314 1981 C314.69013184 1981.38639648 315.38026367 1981.77279297 316.09130859 1982.17089844 C388.25708115 2022.56855824 473.17595785 2041.6976163 616.74609375 2052.203125 C618.711543 2052.21014384 620.67699201 2052.21723069 622.6424408 2052.22438049 C628.90746374 2052.24383257 635.17244992 2052.24881586 641.4375 2052.25 C642.50438301 2052.25044186 643.57126602 2052.25088371 644.67047882 2052.25133896 C676.24837015 2052.25820212 707.69216954 2052.07189483 739.16778564 2049.25323486 C742.13322633 2048.98808792 745.09947899 2048.73369798 748.06591797 2048.47998047 C832.36405555 2041.16891812 917.78431699 2025.2380093 994.83251953 1989.01171875 C996.94044913 1988.02779666 999.05927042 1987.07292117 1001.18359375 1986.125 C1031.82579491 1972.31029929 1061.37223557 1953.74361588 1087 1932 C1088.0318991 1931.14114193 1089.06448427 1930.28310767 1090.09765625 1929.42578125 C1104.58770957 1917.35254961 1118.94894417 1904.64849227 1130.703125 1889.8515625 C1132.70516943 1887.36603115 1134.77575928 1884.96272411 1136.88305664 1882.56665039 C1151.91740747 1865.33581823 1163.9316807 1845.09779009 1174.86572266 1825.07177734 C1175.61727859 1823.69904732 1176.37470661 1822.32951468 1177.13818359 1820.96337891 C1191.10896924 1795.93411092 1201.68784911 1769.05746212 1211 1742 C1211.38994141 1740.86739746 1211.77988281 1739.73479492 1212.18164062 1738.56787109 C1242.82763608 1648.52241852 1255.28295046 1552.77536516 1264.88729954 1404.7938242 C1264.96412743 1402.8892746 1265.04226798 1400.98477761 1265.12155819 1399.08032894 C1265.9038672 1379.98476375 1266.16975981 1360.9181172 1266.22979546 1341.80920029 C1266.24565843 1336.79449113 1266.26958515 1331.77983751 1266.29469299 1326.76516724 C1266.3648677 1312.53130636 1266.4257366 1298.29741875 1266.47680664 1284.06347656 C1266.50528636 1276.14505952 1266.54073064 1268.22670297 1266.58346039 1260.30834973 C1266.60558148 1256.14818022 1266.6242103 1251.98806504 1266.63390923 1247.82784653 C1266.73497202 1206.12446191 1266.73497202 1206.12446191 1271.125 1188.5625 C1271.33745361 1187.70035889 1271.54990723 1186.83821777 1271.76879883 1185.94995117 C1278.64829371 1159.41889321 1292.282794 1136.81430688 1311 1117 C1311.69480469 1116.25234375 1312.38960937 1115.5046875 1313.10546875 1114.734375 C1340.82716308 1085.85129821 1381.06018806 1071.06963765 1420.5378418 1069.92651367 C1455.13385419 1069.64840529 1491.28008464 1080.56709734 1518 1103 C1519.16004562 1103.94675015 1520.3202082 1104.89335701 1521.48046875 1105.83984375 C1528.95957851 1112.01885034 1535.81438756 1118.4953232 1542 1126 C1542.42845215 1126.51804199 1542.8569043 1127.03608398 1543.29833984 1127.56982422 C1570.77069718 1161.33646846 1577.17560972 1200.9445742 1577.1328125 1243.1015625 C1577.13391376 1245.36221332 1577.13534534 1247.62286399 1577.13708496 1249.8835144 C1577.13997306 1255.89119495 1577.13571443 1261.89884789 1577.12897491 1267.90652466 C1577.12498649 1271.63763427 1577.12248315 1275.36874245 1577.12030029 1279.09985352 C1577.09560145 1315.7401475 1577.0179281 1352.3714254 1576 1389 C1575.97077454 1390.07354736 1575.94154907 1391.14709473 1575.91143799 1392.25317383 C1572.99762788 1497.69974309 1563.88734303 1603.45039603 1513.63098145 1821.05487061 C1513.0027607 1822.99148957 1512.38401921 1824.9308745 1511.76855469 1826.87158203 C1496.82114934 1873.97404412 1477.11341385 1919.81654003 1451.66699219 1962.21289062 C1450.08607444 1964.85608878 1448.52778776 1967.51117089 1446.9765625 1970.171875 C1430.4280755 1998.40847354 1410.8971437 2025.02950615 1389.6328125 2049.89453125 C1387.11661783 2052.84420349 1384.68107031 2055.85470418 1382.25 2058.875 C1379.2659783 2062.54396619 1376.18642589 2065.94800455 1372.77723694 2069.22181702 C1371.02390651 2070.97608077 1369.41565191 2072.79482558 1367.80639648 2074.68139648 C1363.95633313 2079.10964408 1359.87638108 2083.26800914 1355.72265625 2087.41015625 C1354.95247665 2088.18129257 1354.18229706 2088.95242889 1353.38877869 2089.74693298 C1351.77058627 2091.36580153 1350.15114788 2092.98342551 1348.53051758 2094.59985352 C1346.06932768 2097.05568718 1343.61352191 2099.51681365 1341.15820312 2101.97851562 C1339.57584133 2103.56021653 1337.99316933 2105.14160717 1336.41015625 2106.72265625 C1335.32384666 2107.81200218 1335.32384666 2107.81200218 1334.21559143 2108.9233551 C1329.63638913 2113.4818644 1324.90496726 2117.79558728 1320 2122 C1318.8439718 2123.0104842 1317.68885824 2124.02201695 1316.53515625 2125.03515625 C1303.05552964 2136.8052563 1289.33105162 2148.2758214 1275 2159 C1274.31244629 2159.51498047 1273.62489258 2160.02996094 1272.91650391 2160.56054688 C1255.36975907 2173.66803027 1237.53267327 2186.32099504 1219 2198 C1218.19481934 2198.50885742 1217.38963867 2199.01771484 1216.56005859 2199.54199219 C1145.04689382 2244.623102 1066.80116113 2276.29201416 985 2297 C984.23405518 2297.19422546 983.46811035 2297.38845093 982.67895508 2297.58856201 C919.63424411 2313.52211987 855.1548562 2323.01174025 790.375 2328.1875 C788.91593735 2328.30585709 788.91593735 2328.30585709 787.42739868 2328.42660522 C779.95600279 2329.0248082 772.48053903 2329.53081677 765 2330 C763.9899824 2330.06488302 763.9899824 2330.06488302 762.95956039 2330.13107681 C733.06199629 2332.04479278 703.20316295 2332.34495594 673.25073242 2332.31567383 C668.15558989 2332.31106862 663.06068763 2332.31788872 657.96557617 2332.33618164 C550.27689044 2332.71871326 442.13497962 2323.07925061 257 2275 C256.28575867 2274.76214783 255.57151733 2274.52429565 254.83563232 2274.27923584 C189.98456925 2252.61083374 126.32724326 2222.9247706 70 2184 C69.21496094 2183.45843262 68.42992187 2182.91686523 67.62109375 2182.35888672 C39.55488631 2162.9535681 12.65207482 2141.96309643 -12.26220703 2118.62011719 C-14.10146034 2116.90541011 -15.95413797 2115.20605941 -17.80859375 2113.5078125 C-27.01077807 2105.03985705 -35.68537196 2096.18918954 -44.15869141 2086.99414062 C-45.88185659 2085.12794953 -47.61607673 2083.27293297 -49.35546875 2081.421875 C-54.62703843 2075.79591408 -59.71413085 2070.06888192 -64.5390625 2064.05078125 C-66.40753891 2061.73446366 -68.29615179 2059.44547949 -70.2109375 2057.16796875 C-78.06255093 2047.80321525 -85.40257284 2038.18882354 -92.44287109 2028.20117188 C-93.94509524 2026.07761388 -95.46381644 2023.96700411 -96.98828125 2021.859375 C-116.49970406 1994.76483965 -133.02436523 1965.80465493 -148 1936 C-148.85827393 1934.30544678 -148.85827393 1934.30544678 -149.73388672 1932.57666016 C-165.42337869 1901.46765054 -177.97444791 1869.02570108 -189 1836 C-189.22969482 1835.31327209 -189.45938965 1834.62654419 -189.69604492 1833.91900635 C-222.16325147 1736.57174668 -238.18159832 1634.07541554 -256.26313647 1322.33918281 C-256.25929993 1316.49546005 -256.26515578 1310.65174716 -256.27048406 1304.8080272 C-256.28113612 1292.76596542 -256.28269501 1280.72391942 -256.27878571 1268.68185425 C-256.27487175 1256.52739116 -256.27542287 1244.37293976 -256.2810955 1232.21847725 C-256.28145433 1231.4428201 -256.28181316 1230.66716295 -256.28218286 1229.86800103 C-256.2836582 1226.70751863 -256.28516265 1223.54703625 -256.28670432 1220.38655388 C-256.30222382 1188.53294888 -256.30503149 1156.67935196 -256.30254826 1124.82574385 C-256.30220974 1120.44658188 -256.30188765 1116.06741991 -256.30158257 1111.68825793 C-256.30152153 1110.8182162 -256.30146049 1109.94817447 -256.30139759 1109.05176784 C-256.30011978 1089.67731396 -256.30273756 1070.30286117 -256.30610864 1050.92840762 C-256.30687937 1046.49066727 -256.30762415 1042.05292692 -256.30837366 1037.61518656 C-256.30867535 1035.83392534 -256.30897724 1034.05266412 -256.3092793 1032.2714029 C-256.30942898 1031.38841353 -256.30957866 1030.50542415 -256.30973287 1029.59567753 C-256.31003642 1027.80948429 -256.3103411 1026.02329106 -256.31064692 1024.23709783 C-256.31930106 973.66204226 -256.3239767 923.08698764 -256.31969929 872.51193142 C-256.31962123 871.57827817 -256.31954317 870.64462492 -256.31946275 869.68267915 C-256.31859012 859.27374806 -256.31766084 848.86481697 -256.31671212 838.45588588 C-256.31662661 837.516279 -256.3165411 836.57667213 -256.316453 835.60859231 C-256.31574252 827.80480818 -256.31574252 827.80480818 -256.31541077 824.20923283 C-256.30986532 764.00431001 -256.31745268 703.79940249 -256.33618164 643.59448242 C-256.3409042 628.39511588 -256.34558482 613.19574934 -256.3500185 597.99638271 C-256.35029182 597.06037937 -256.35056515 596.12437602 -256.35084675 595.16000894 C-256.35921801 566.3114535 -256.36389763 537.46289933 -256.36472607 508.61434269 C-256.36475243 507.70871941 -256.3647788 506.80309614 -256.36480596 505.87002973 C-256.36534671 485.99092451 -256.36497435 466.11181938 -256.36376625 446.23271419 C-256.36334067 439.12084853 -256.36297553 432.00898286 -256.36263681 424.8971172 C-256.36255151 423.12810067 -256.36246257 421.35908413 -256.36236999 419.5900676 C-256.36092292 391.43634305 -256.36803547 363.28262893 -256.37937395 335.12890689 C-256.39102475 306.01185172 -256.39158603 276.89481516 -256.37953053 247.7777599 C-256.37827875 244.64986635 -256.37707526 241.52197279 -256.37590981 238.39407921 C-256.37561951 237.62647913 -256.37532922 236.85887905 -256.37503013 236.06801836 C-256.37071061 223.93094714 -256.37642519 211.79390246 -256.38635 199.65683541 C-256.39590355 187.71417134 -256.39469026 175.77154807 -256.38214377 163.82888635 C-256.37587726 157.44542076 -256.37431291 151.06205105 -256.38600711 144.67859095 C-256.39655978 138.86483058 -256.39315275 133.05124717 -256.37890258 127.23749622 C-256.37618804 125.154402 -256.37842599 123.07129346 -256.38640973 120.98821278 C-256.4448334 104.61938044 -255.26599626 88.50259153 -250.25 72.8125 C-249.99395996 71.98991699 -249.73791992 71.16733398 -249.47412109 70.31982422 C-236.66748923 30.37146986 -208.70595092 -2.17775756 -171.53125 -21.359375 C-115.13498718 -49.29898365 -47.90059268 -40.07790081 0 0 Z " fill="#6947DC" transform="translate(256,386)"/>
<path d="M0 0 C2.21538308 -0.00323398 4.43076598 -0.00659941 6.64614868 -0.01008606 C11.25954683 -0.01601219 15.87292645 -0.01793305 20.48632812 -0.01733398 C25.11429804 -0.01725327 29.74216781 -0.02412071 34.37011719 -0.0378418 C64.34171021 -0.12521605 94.18067105 0.37641478 124.1015625 2.16796875 C125.38732178 2.24367096 126.67308105 2.31937317 127.99780273 2.39736938 C135.3087344 2.83757517 142.6119922 3.35029153 149.9140625 3.91796875 C150.99278625 4.00067017 152.07151001 4.08337158 153.18292236 4.1685791 C213.3297385 8.82419746 273.10287079 17.03639622 332.30218506 28.62097168 C334.99055592 29.14627811 337.67995903 29.66596247 340.36962891 30.18457031 C402.90363621 42.30241051 464.61404543 59.30453422 525.1015625 79.16796875 C526.28854736 79.5576181 526.28854736 79.5576181 527.49951172 79.95513916 C578.78546654 96.8301888 629.02472958 116.67472631 678.1015625 139.16796875 C680.20947772 140.12534728 682.31754876 141.08238282 684.42578125 142.0390625 C718.80326617 157.70448167 752.86571951 174.27323866 785.6484375 193.0703125 C790.09495809 195.61400711 794.5863781 198.05997116 799.10229492 200.4777832 C811.73126698 207.24727945 823.94272707 214.64070083 836.14726257 222.13661194 C840.43026172 224.7648342 844.73746311 227.3496357 849.05712891 229.91699219 C888.10738949 253.13436205 925.65450574 279.06959486 962.1015625 306.16796875 C962.67213379 306.59174805 963.24270508 307.01552734 963.83056641 307.45214844 C982.64957259 321.44561548 1001.13209276 335.85576108 1019.29296875 350.69140625 C1020.8939173 351.99844416 1022.49754226 353.30220231 1024.1015625 354.60546875 C1031.1806702 360.36753316 1038.15368143 366.24903767 1045.1015625 372.16796875 C1045.68905273 372.6676416 1046.27654297 373.16731445 1046.88183594 373.68212891 C1053.62883405 379.42382795 1060.32143175 385.20982251 1066.8828125 391.1640625 C1068.89464643 392.98108857 1070.92816684 394.76741267 1072.9765625 396.54296875 C1076.89695651 399.95750547 1080.72488473 403.470223 1084.54956055 406.9909668 C1087.6075321 409.8044916 1090.68641217 412.59109716 1093.7890625 415.35546875 C1109.87779296 429.85465397 1125.20240581 445.10998125 1140.49804688 460.43408203 C1143.62660698 463.56839524 1146.7597156 466.69811759 1149.89412117 469.82658386 C1152.34104001 472.26987425 1154.78555419 474.71555937 1157.2293663 477.16195679 C1158.38392956 478.31718006 1159.53921641 479.47168069 1160.6952858 480.62539673 C1166.71241379 486.63293564 1172.57845812 492.69680201 1178.1015625 499.16796875 C1179.3799947 500.56061502 1180.66664639 501.94586667 1181.96875 503.31640625 C1182.62238525 504.00677979 1183.27602051 504.69715332 1183.94946289 505.40844727 C1184.61840576 506.11283936 1185.28734863 506.81723145 1185.9765625 507.54296875 C1191.77411242 513.67595262 1197.51465069 519.84161273 1203.1015625 526.16796875 C1203.65328125 526.79058594 1204.205 527.41320312 1204.7734375 528.0546875 C1209.5420289 533.47044488 1214.22335998 538.96215341 1218.9140625 544.4453125 C1221.0138825 546.8996058 1223.11808887 549.35001255 1225.2265625 551.796875 C1230.47851412 557.89567361 1235.69816417 564.0130393 1240.7578125 570.2734375 C1242.49245748 572.41572405 1244.24237925 574.53968402 1246.0078125 576.65625 C1256.48467916 589.32203938 1264.99508984 602.43515089 1270.1015625 618.16796875 C1270.31184082 618.80412109 1270.52211914 619.44027344 1270.73876953 620.09570312 C1279.14745125 646.85967818 1275.34045908 677.17031188 1262.5390625 701.80078125 C1248.85219638 726.86786113 1226.01945161 745.76805917 1198.6015625 754.04296875 C1169.07077931 762.38818436 1138.78743604 757.8852187 1112.1015625 743.16796875 C1108.19355496 740.74454159 1104.62178901 738.12244457 1101.1015625 735.16796875 C1100.26625 734.47058594 1099.4309375 733.77320313 1098.5703125 733.0546875 C1089.35862387 725.05132222 1081.58116896 715.9237962 1074.14135742 706.296875 C1070.70664513 701.87204657 1067.06343083 697.70495929 1063.26953125 693.58203125 C1061.01603258 691.07273003 1058.89995104 688.48555249 1056.7890625 685.85546875 C1052.376682 680.39988096 1047.65897726 675.28264966 1042.875 670.15625 C1040.73801936 667.86438465 1038.64932902 665.54038118 1036.6015625 663.16796875 C1032.23300189 658.12243991 1027.6730893 653.25048975 1023.13038635 648.36228943 C1021.59909584 646.70608727 1020.07456961 645.04362736 1018.55332947 643.37818909 C1011.56068444 635.73358014 1004.38801736 628.305422 997.0546875 620.98828125 C995.94742594 619.88034291 994.84031258 618.77225645 993.7333374 617.66403198 C991.43923667 615.36847489 989.1433834 613.07469006 986.84619141 610.78222656 C983.92252273 607.86428797 981.00341471 604.94183436 978.08559036 602.01805305 C975.81042986 599.7392595 973.53286914 597.46287679 971.25460052 595.18719101 C970.17752772 594.11077814 969.1011773 593.03364187 968.02561188 591.95572281 C962.22425647 586.14444262 956.3443909 580.50566083 950.1015625 575.16796875 C948.75896783 573.93842242 947.42306788 572.7014041 946.1015625 571.44921875 C945.4415625 570.82660156 944.7815625 570.20398438 944.1015625 569.5625 C942.76822917 568.29947917 941.43489583 567.03645833 940.1015625 565.7734375 C933.43139159 559.48106924 926.51150792 553.49583894 919.5390625 547.54296875 C915.79448042 544.34430196 912.05836039 541.13753833 908.35546875 537.890625 C901.78156017 532.13235694 895.13933038 526.5363733 888.22607422 521.18896484 C884.29654342 518.14028634 880.4935839 514.9769626 876.7265625 511.73046875 C870.86326351 506.70313055 864.75185775 502.07156806 858.546875 497.4765625 C854.40021227 494.40374048 850.30072553 491.27166015 846.20410156 488.13256836 C837.86173085 481.74138048 829.47683208 475.44498904 820.87207031 469.41162109 C818.92074259 468.04095598 816.97570784 466.66164235 815.03125 465.28125 C805.45022614 458.48584039 795.81579856 451.77164891 786.1015625 445.16796875 C785.52325684 444.77464355 784.94495117 444.38131836 784.34912109 443.97607422 C756.07176639 424.80320152 726.90568851 406.86371284 697.1015625 390.16796875 C695.9870874 389.54148437 695.9870874 389.54148437 694.85009766 388.90234375 C673.77099721 377.06320446 652.48444569 365.65103244 630.8515625 354.85546875 C629.7730603 354.31648956 628.69455811 353.77751038 627.58337402 353.22219849 C609.04392242 343.97375774 590.35038785 335.23679157 571.29589844 327.10693359 C569.03844074 326.14095871 566.78446753 325.1672279 564.53125 324.19140625 C540.34262868 313.72312554 515.88191909 304.14216331 491.1015625 295.16796875 C490.27914062 294.86955078 489.45671875 294.57113281 488.609375 294.26367188 C432.94926206 274.09125673 376.01394894 257.52481201 318.1015625 245.16796875 C317.24701477 244.98532471 316.39246704 244.80268066 315.51202393 244.61450195 C225.8791311 225.52500473 134.7403692 215.30170493 43.1015625 214.16796875 C41.8237793 214.15137207 40.54599609 214.13477539 39.22949219 214.11767578 C30.85167683 214.02653919 22.47905256 214.05915646 14.1015625 214.16796875 C13.40639526 214.17656921 12.71122803 214.18516968 11.99499512 214.19403076 C-89.03515032 215.48900093 -189.95488703 227.75703592 -630.04443359 384.53955078 C-634.13602215 386.87410131 -638.25561443 389.15733795 -642.3737793 391.44458008 C-654.36717717 398.11264312 -666.20296899 404.99089881 -677.8984375 412.16796875 C-678.77661133 412.70405762 -679.65478516 413.24014648 -680.55957031 413.79248047 C-693.52595838 421.72456143 -706.2554871 429.98335188 -718.8984375 438.41796875 C-719.57868988 438.87169861 -720.25894226 439.32542847 -720.95980835 439.79290771 C-734.00094867 448.50146752 -747.03069115 457.25119539 -759.7109375 466.48046875 C-760.44828125 467.01551025 -761.185625 467.55055176 -761.9453125 468.10180664 C-764.2651382 469.78764119 -766.58205243 471.47741062 -768.8984375 473.16796875 C-769.67622559 473.73418945 -770.45401367 474.30041016 -771.25537109 474.88378906 C-782.2761532 482.91415529 -793.12786149 491.13478663 -803.84960938 499.56005859 C-805.74209226 501.04526978 -807.63942463 502.52395834 -809.5390625 504 C-822.72261868 514.26402077 -835.57046351 524.94793064 -848.28173828 535.78955078 C-849.99455722 537.24992162 -851.71023281 538.70689953 -853.42578125 540.1640625 C-859.87153121 545.65138864 -866.21762003 551.21967544 -872.45703125 556.94140625 C-874.55998583 558.85930082 -876.68512906 560.7417292 -878.8359375 562.60546875 C-883.11400509 566.32929276 -887.29777405 570.15376235 -891.46459961 574.0012207 C-893.62009923 575.99116653 -895.78115052 577.97472491 -897.94702148 579.95336914 C-909.33072231 590.41277275 -920.23604264 601.35187206 -931.15332031 612.29248047 C-933.873897 615.01880413 -936.599011 617.7405417 -939.32543182 620.46101952 C-941.45667398 622.58862794 -943.58550424 624.71863691 -945.71363831 626.84935379 C-946.71748345 627.85385781 -947.72204902 628.85764249 -948.72740173 629.86063766 C-953.81343378 634.93733392 -958.78901949 640.04735204 -963.46887207 645.50259399 C-965.20074846 647.52014643 -967.00365914 649.46022039 -968.8359375 651.38671875 C-969.50367188 652.09183594 -970.17140625 652.79695312 -970.859375 653.5234375 C-972.8984375 655.66796875 -972.8984375 655.66796875 -974.9375 657.8125 C-979.37663162 662.50015443 -983.68700184 667.27486227 -987.8984375 672.16796875 C-988.38086914 672.72822754 -988.86330078 673.28848633 -989.36035156 673.86572266 C-990.75063296 675.48511227 -992.13760125 677.10727401 -993.5234375 678.73046875 C-996.72210429 682.47505083 -999.92886792 686.21117086 -1003.17578125 689.9140625 C-1008.4384961 695.92311747 -1013.58670465 701.96299089 -1018.4609375 708.29296875 C-1029.91838359 723.10884746 -1042.4697646 735.89371792 -1058.8984375 745.16796875 C-1059.73117187 745.64105469 -1060.56390625 746.11414063 -1061.421875 746.6015625 C-1086.40835637 759.92491884 -1115.95129422 761.1881136 -1142.87890625 753.546875 C-1169.24397326 744.94770546 -1192.26567843 726.68057055 -1205.15234375 701.9609375 C-1213.24778129 685.69688333 -1217.29753399 669.60446801 -1217.2109375 651.41796875 C-1217.20529785 650.17877686 -1217.1996582 648.93958496 -1217.19384766 647.6628418 C-1217.07606298 638.78409296 -1216.47692816 630.71104345 -1213.8984375 622.16796875 C-1213.69976074 621.49797852 -1213.50108398 620.82798828 -1213.29638672 620.13769531 C-1206.94178919 599.18418347 -1194.52359895 583.63907706 -1180.5234375 567.26171875 C-1178.05927786 564.37245555 -1175.6618275 561.43278417 -1173.2734375 558.48046875 C-1169.69443627 554.079953 -1165.9505145 549.86964354 -1162.12890625 545.6796875 C-1159.90324399 543.17338131 -1157.80322189 540.59872482 -1155.7109375 537.98046875 C-1150.80492097 531.91045885 -1145.46840237 526.27819399 -1140.1171875 520.6015625 C-1137.7841395 518.12403065 -1135.49659895 515.62031033 -1133.2734375 513.04296875 C-1128.86811505 507.93804174 -1124.26514604 503.01561456 -1119.67381287 498.07878113 C-1118.54085958 496.8593989 -1117.40918477 495.6388267 -1116.27919006 494.41670227 C-1104.42108155 481.60152788 -1092.12498663 469.23872598 -1079.76855469 456.90771484 C-1076.93690849 454.08182778 -1074.10986418 451.25138566 -1071.28406525 448.41965294 C-1069.07239176 446.20434828 -1066.85832077 443.99145207 -1064.64353943 441.77925491 C-1063.59996015 440.7363346 -1062.55710047 439.69269364 -1061.51502991 438.64826584 C-1056.35401403 433.47811172 -1051.17442037 428.38014733 -1045.59802246 423.6534729 C-1043.78076661 422.06511976 -1042.08793287 420.39090795 -1040.3984375 418.66796875 C-1037.47712962 415.70081074 -1034.41852077 412.96737904 -1031.265625 410.25 C-1028.26121201 407.60750475 -1025.33109678 404.88956702 -1022.3984375 402.16796875 C-1014.93470988 395.25405532 -1007.26151749 388.61047733 -999.53027344 381.9987793 C-995.71318173 378.73240471 -991.91402125 375.4464142 -988.12548828 372.14697266 C-981.47982348 366.36231212 -974.75219809 360.70580731 -967.8984375 355.16796875 C-966.6505737 354.15031314 -965.4032123 353.1320413 -964.15625 352.11328125 C-951.8844463 342.09587762 -939.45195695 332.30059444 -926.86865234 322.67724609 C-924.58005443 320.92407233 -922.29616442 319.16483056 -920.01171875 317.40625 C-910.47908072 310.08563449 -900.87441086 302.92408704 -891.01171875 296.0546875 C-888.31606763 294.17451682 -885.64875435 292.2634652 -883.00390625 290.3125 C-869.62672031 280.45767086 -855.77470103 271.32502973 -841.92190552 262.1585083 C-837.90095251 259.49774544 -833.88713191 256.82667665 -829.87895203 254.14671326 C-823.92798953 250.16879765 -817.96049721 246.22519921 -811.8984375 242.41796875 C-811.11702393 241.92611084 -810.33561035 241.43425293 -809.53051758 240.92749023 C-776.98850453 220.51567304 -743.78236246 201.2620538 -709.8984375 183.16796875 C-709.05635742 182.71728027 -708.21427734 182.2665918 -707.34667969 181.80224609 C-700.56714851 178.18604686 -693.74189317 174.66143113 -686.8984375 171.16796875 C-686.11990417 170.77033325 -685.34137085 170.37269775 -684.53924561 169.9630127 C-659.54407228 157.20999612 -634.43997174 144.93480698 -608.67675781 133.80957031 C-605.33756411 132.36446676 -602.01739648 130.88042957 -598.703125 129.37890625 C-564.50059447 113.92457944 -529.2614582 100.69698556 -493.8984375 88.16796875 C-493.07829163 87.87639893 -492.25814575 87.5848291 -491.41314697 87.28442383 C-447.58225776 71.71114743 -402.97625756 58.61281899 -357.8984375 47.16796875 C-356.99639587 46.93827393 -356.09435425 46.7085791 -355.16497803 46.47192383 C-261.97765741 22.79483733 -166.56620069 8.52857886 -70.6484375 2.41796875 C-69.25685425 2.32921982 -69.25685425 2.32921982 -67.8371582 2.23867798 C-45.23235769 0.82018372 -22.64953269 0.00803462 0 0 Z " fill="#00C037" transform="translate(1649.8984375,-0.16796875)"/>
<path d="M0 0 C0.93230312 -0.00058914 1.86460625 -0.00117828 2.82516098 -0.00178528 C32.04457166 -0.01480331 61.09985167 0.42679514 90.22369385 3.02539062 C92.72848061 3.24808675 95.23394177 3.46096883 97.73974609 3.671875 C180.80869154 10.75834732 262.60350977 28.25783251 341.75 54.25 C342.44013184 54.47560608 343.13026367 54.70121216 343.84130859 54.93365479 C410.74805455 76.81461186 475.85478754 105.93548668 536.75 141.25 C538.49157218 142.25173883 540.23314806 143.25347125 541.97483826 144.25500488 C556.8137481 152.79893836 571.37400981 161.6486812 585.61816406 171.16162109 C588.49676571 173.08113766 591.38207599 174.98993995 594.2701416 176.89515686 C607.91334955 185.89755885 621.48925956 194.95079565 634.62841797 204.68164062 C636.93405311 206.38605951 639.24957024 208.07646688 641.56640625 209.765625 C651.11374604 216.74013044 660.53394095 223.84305691 669.75 231.25 C670.3903418 231.7641748 671.03068359 232.27834961 671.69042969 232.80810547 C679.26450903 238.90141386 686.77463824 245.06282913 694.17041016 251.37158203 C697.46606818 254.17990448 700.80946283 256.91666116 704.1875 259.625 C709.88065857 264.25277217 715.20042762 269.24391025 720.546875 274.26171875 C722.88613092 276.45460254 725.25452359 278.59831373 727.6875 280.6875 C741.16220152 292.3636914 753.71074995 305.05083766 766.29589844 317.66552734 C768.77433685 320.14971762 771.25731746 322.62931223 773.74160004 325.10765648 C776.15309399 327.51464368 778.56074575 329.92545909 780.96875 332.3359375 C782.28764221 333.65179337 782.28764221 333.65179337 783.63317871 334.99423218 C788.00153454 339.37913882 792.23750911 343.81958456 796.2635498 348.52200317 C798.68304451 351.33466328 801.22087992 354.03622066 803.75 356.75 C808.16617373 361.5153564 812.51709102 366.32031588 816.75 371.25 C817.67442929 372.32035558 818.59891358 373.39066365 819.5234375 374.4609375 C825.70916348 381.63511442 831.8317872 388.85223399 837.75 396.25 C838.15992187 396.75885742 838.56984375 397.26771484 838.9921875 397.79199219 C859.64838112 423.53399106 867.89790139 452.12458371 864.45703125 485.05371094 C861.37945845 506.77045446 851.18576761 525.94245435 836.75 542.25 C836.13769531 542.94609375 835.52539062 543.6421875 834.89453125 544.359375 C816.82403604 563.62429527 790.16090588 574.84685028 764.01513672 576.18017578 C733.19932605 577.13009191 705.805198 566.88562826 683.15625 545.83984375 C678.08490709 540.90154533 673.51693732 535.6891656 669.09375 530.16796875 C662.34544286 521.76632637 655.28752845 513.6514177 648 505.71484375 C646.13233297 503.66884046 644.30630403 501.59982843 642.5 499.5 C632.04817699 487.51397918 620.86321144 476.20061581 609.60693359 464.9765625 C607.35265829 462.72771206 605.10386624 460.47347552 602.85546875 458.21875 C601.3961543 456.76009548 599.93653015 455.30175073 598.4765625 453.84375 C597.81806305 453.18322632 597.1595636 452.52270264 596.48110962 451.84216309 C592.62016441 448.00038634 588.65135452 444.33870842 584.52323914 440.78512573 C581.93461572 438.54410683 579.44290835 436.20870904 576.9375 433.875 C572.31566169 429.60480741 567.55576052 425.56774627 562.65234375 421.62109375 C559.36035835 418.93167903 556.1501898 416.15803185 552.9375 413.375 C546.04640349 407.43536643 538.95706953 401.7995634 531.75 396.25 C530.97769043 395.65171387 530.20538086 395.05342773 529.40966797 394.43701172 C500.5515353 372.09795089 470.23390719 351.70924639 438.75 333.25 C438.04375488 332.83379395 437.33750977 332.41758789 436.60986328 331.98876953 C385.80245945 302.14915247 332.44663705 278.35511311 276.75 259.25 C276.09833862 259.02590454 275.44667725 258.80180908 274.77526855 258.57092285 C212.03432176 237.04437965 146.20528452 224.19804791 80.25 217.9375 C79.39338776 217.85609772 78.53677551 217.77469543 77.65420532 217.69082642 C-6.29786254 209.82536348 -91.42104506 215.29393444 -417.25 322.25 C-418.92447625 323.18774645 -420.59895898 324.12548137 -422.27362061 325.06289673 C-437.5818 333.64374674 -452.57849807 342.61075235 -467.25 352.25 C-468.14299805 352.83523438 -469.03599609 353.42046875 -469.95605469 354.0234375 C-488.46074891 366.17854679 -506.3622171 378.94116025 -523.90429688 392.44775391 C-525.935498 394.00836243 -527.97291407 395.55998191 -530.015625 397.10546875 C-536.56381915 402.07091036 -542.88449156 407.25122444 -549.125 412.59375 C-552.00080959 415.05164637 -554.93065883 417.43695201 -557.875 419.8125 C-562.63950808 423.68929769 -567.1864389 427.76471532 -571.70703125 431.921875 C-573.82067054 433.85694262 -575.95659848 435.75208297 -578.125 437.625 C-589.76727464 447.78423178 -600.74606125 458.58744173 -611.65429688 469.52392578 C-614.13818449 472.01321315 -616.62742683 474.49705702 -619.1171875 476.98046875 C-620.72167518 478.58561669 -622.32585292 480.1910745 -623.9296875 481.796875 C-625.02831619 482.89246735 -625.02831619 482.89246735 -626.1491394 484.01019287 C-630.17027917 488.0494848 -634.02528424 492.17925938 -637.74041748 496.50230408 C-639.97070057 499.08437999 -642.29946187 501.56586372 -644.625 504.0625 C-648.88878004 508.67739769 -652.91905262 513.43110926 -656.86328125 518.32421875 C-661.11722491 523.53895492 -665.52593969 528.62173711 -669.92529297 533.71386719 C-671.03942553 535.00581744 -672.14739277 536.3030808 -673.25390625 537.6015625 C-688.71962138 555.61499404 -707.29527169 567.27824302 -730.25 573.25 C-731.10464844 573.48332031 -731.95929688 573.71664062 -732.83984375 573.95703125 C-759.51258645 580.29465729 -786.75208767 574.32550405 -810.25 561.25 C-811.69439453 560.46882813 -811.69439453 560.46882813 -813.16796875 559.671875 C-826.10046927 552.10722181 -837.04931387 540.68491795 -845.25 528.25 C-845.86101563 527.34378906 -846.47203125 526.43757812 -847.1015625 525.50390625 C-862.08513584 501.70840761 -866.40123144 471.24648689 -860.28515625 443.9375 C-855.00147925 425.11564684 -846.45288571 409.87594666 -833.78369141 395.05566406 C-831.64151883 392.53361561 -829.57367297 389.95347253 -827.5 387.375 C-823.96534605 383.05343404 -820.26689549 378.91198984 -816.50390625 374.7890625 C-814.14440487 372.13104535 -811.91275885 369.39607706 -809.6875 366.625 C-806.3833951 362.53940246 -802.92047644 358.80464546 -799.15234375 355.1484375 C-796.61168804 352.61299874 -794.30351051 349.90408365 -791.96484375 347.18359375 C-789.77931636 344.71927471 -787.44594749 342.43220548 -785.09474182 340.12742615 C-783.30559205 338.306577 -781.63982424 336.42748106 -779.98022461 334.48852539 C-776.49123223 330.47748209 -772.83057746 326.68541284 -769.06640625 322.93359375 C-768.40720688 322.27343765 -767.74800751 321.61328156 -767.0688324 320.93312073 C-765.68603165 319.54964494 -764.30198924 318.16740917 -762.91674805 316.78637695 C-760.81769657 314.69268331 -758.7240406 312.59370126 -756.63085938 310.49414062 C-755.27636214 309.14030429 -753.92155469 307.78677825 -752.56640625 306.43359375 C-751.95156876 305.81673203 -751.33673126 305.1998703 -750.70326233 304.5643158 C-746.95830441 300.83911653 -743.09778566 297.30550011 -739.08457947 293.87049866 C-737.22815141 292.23070097 -735.48369987 290.51834095 -733.75 288.75 C-730.80399785 285.75765625 -727.72016993 282.99675828 -724.5390625 280.2578125 C-722.31465752 278.30671325 -720.13902402 276.30891092 -717.97021484 274.29638672 C-712.86433459 269.56137002 -707.64672734 265.05483809 -702.21875 260.6875 C-698.72718068 257.82073782 -695.33476528 254.85221766 -691.9375 251.875 C-685.47049408 246.22649882 -678.80861803 240.89283767 -672.02246094 235.63574219 C-669.57657075 233.72350077 -667.16235702 231.77311144 -664.74682617 229.82275391 C-635.69483722 206.38260735 -604.83690698 185.10046354 -573.25 165.25 C-572.35071777 164.6818457 -571.45143555 164.11369141 -570.52490234 163.52832031 C-548.3017328 149.50095913 -525.44908356 136.58651841 -502.25 124.25 C-500.87376465 123.51450928 -500.87376465 123.51450928 -499.46972656 122.76416016 C-428.27524783 84.78447828 -352.20963174 55.39444937 -63.55126953 1.39074707 C-62.05038989 1.29895234 -60.54971891 1.20365901 -59.04931641 1.10437012 C-39.39838166 -0.17773091 -19.68326646 0.00569496 0 0 Z " fill="#00C137" transform="translate(1677.25,490.75)"/>
<path d="M0 0 C4.71013299 0.75434949 9.42514973 1.47323809 14.14208984 2.18359375 C26.35178705 4.03072866 38.53605463 5.91688691 50.61157227 8.5222168 C54.13598624 9.2769601 57.57414928 9.87411977 61.16552734 10.19921875 C65.79107456 10.66401044 70.13948347 11.80737555 74.63037109 12.97900391 C80.49238604 14.41896701 86.44082032 15.40113231 92.38037109 16.46484375 C120.19740614 21.57044026 147.63029655 28.12601667 175.06787109 34.96484375 C176.27378906 35.26471191 177.47970703 35.56458008 178.72216797 35.87353516 C190.95755464 38.92236923 203.14428725 42.0397695 215.21655273 45.68481445 C220.77941902 47.34362878 226.39094772 48.80485795 232.00537109 50.27734375 C240.19044235 52.45081398 248.22116017 54.78489665 256.22021484 57.56640625 C259.56530696 58.67310695 262.90963178 59.62774647 266.30810547 60.54882812 C280.06671081 64.2931892 293.49335052 68.99735974 306.95996094 73.66381836 C308.669022 74.25529435 310.37816806 74.84652478 312.08740234 75.4375 C312.92047913 75.72578171 313.75355591 76.01406342 314.61187744 76.31108093 C319.88604253 78.12476829 325.18384517 79.82996416 330.51708984 81.4609375 C335.52023223 82.99467731 340.39736425 84.68010615 345.22949219 86.69189453 C348.59398493 88.06954555 351.99452989 89.34509906 355.39990234 90.6171875 C356.07165497 90.86852448 356.74340759 91.11986145 357.43551636 91.3788147 C359.52095991 92.15840852 361.60686916 92.93674539 363.69287109 93.71484375 C415.71964433 113.1372786 466.64226123 134.83446388 516.56005859 159.16796875 C520.73015081 161.18923698 524.91766046 163.17241626 529.10668945 165.15405273 C539.23109712 169.95063263 549.19479315 174.97662181 559.06640625 180.27246094 C561.72739139 181.6955316 564.39330054 183.10902229 567.06105042 184.5193634 C583.14572876 193.02290467 599.11675534 201.68812143 614.88037109 210.77734375 C615.91516602 211.37353516 616.94996094 211.96972656 618.01611328 212.58398438 C621.22361864 214.43540028 624.42783679 216.29234358 627.63037109 218.15234375 C628.59442871 218.71131348 629.55848633 219.2702832 630.55175781 219.84619141 C637.09763379 223.66736497 643.51302605 227.66593761 649.88037109 231.77734375 C649.22037109 232.10734375 648.56037109 232.43734375 647.88037109 232.77734375 C645.72338867 231.81201172 645.72338867 231.81201172 643.02490234 230.26953125 C642.0071875 229.69332031 640.98947266 229.11710938 639.94091797 228.5234375 C638.8690625 227.90597656 637.79720703 227.28851563 636.69287109 226.65234375 C635.70222656 226.08902344 634.71158203 225.52570313 633.69091797 224.9453125 C629.28400406 222.43872729 624.87722868 219.93207837 620.48831177 217.39407349 C604.81784982 208.33443976 588.8394838 199.99280202 572.639534 191.93350983 C570.65890862 190.94794391 568.67921981 189.96051547 566.699646 188.97283936 C546.69699674 179.00026118 526.58889231 169.39821478 506.0032959 160.68060303 C503.78331438 159.73604818 501.56814942 158.78090526 499.35400391 157.82275391 C475.14958872 147.34859762 450.67667571 137.75731388 425.88037109 128.77734375 C425.05794922 128.47892578 424.23552734 128.18050781 423.38818359 127.87304688 C367.72807065 107.70063173 310.79275753 91.13418701 252.88037109 78.77734375 C252.02582336 78.59469971 251.17127563 78.41205566 250.29083252 78.22387695 C160.6579397 59.13437973 69.51917779 48.91107993 -22.11962891 47.77734375 C-23.39741211 47.76074707 -24.67519531 47.74415039 -25.99169922 47.72705078 C-34.36951458 47.63591419 -42.74213884 47.66853146 -51.11962891 47.77734375 C-51.81479614 47.78594421 -52.50996338 47.79454468 -53.22619629 47.80340576 C-154.25634173 49.09837593 -255.17607844 61.36641092 -695.265625 218.14892578 C-699.35721356 220.48347631 -703.47680584 222.76671295 -707.5949707 225.05395508 C-719.58836858 231.72201812 -731.42416039 238.60027381 -743.11962891 245.77734375 C-743.99780273 246.31343262 -744.87597656 246.84952148 -745.78076172 247.40185547 C-758.74714978 255.33393643 -771.4766785 263.59272688 -784.11962891 272.02734375 C-784.79988129 272.48107361 -785.48013367 272.93480347 -786.18099976 273.40228271 C-799.22214007 282.11084252 -812.25188256 290.86057039 -824.93212891 300.08984375 C-825.66947266 300.62488525 -826.40681641 301.15992676 -827.16650391 301.71118164 C-829.48632961 303.39701619 -831.80324384 305.08678562 -834.11962891 306.77734375 C-834.89741699 307.34356445 -835.67520508 307.90978516 -836.4765625 308.49316406 C-847.49734461 316.52353029 -858.3490529 324.74416163 -869.07080078 333.16943359 C-870.96328367 334.65464478 -872.86061604 336.13333334 -874.76025391 337.609375 C-887.94381008 347.87339577 -900.79165492 358.55730564 -913.50292969 369.39892578 C-915.21574862 370.85929662 -916.93142422 372.31627453 -918.64697266 373.7734375 C-925.09272262 379.26076364 -931.43881144 384.82905044 -937.67822266 390.55078125 C-939.78117723 392.46867582 -941.90632047 394.3511042 -944.05712891 396.21484375 C-948.33519649 399.93866776 -952.51896546 403.76313735 -956.68579102 407.6105957 C-958.84129063 409.60054153 -961.00234193 411.58409991 -963.16821289 413.56274414 C-974.55191371 424.02214775 -985.45723404 434.96124706 -996.37451172 445.90185547 C-999.0950884 448.62817913 -1001.82020241 451.3499167 -1004.54662323 454.07039452 C-1006.67786539 456.19800294 -1008.80669564 458.32801191 -1010.93482971 460.45872879 C-1011.93867486 461.46323281 -1012.94324042 462.46701749 -1013.94859314 463.47001266 C-1019.03462519 468.54670892 -1024.0102109 473.65672704 -1028.69006348 479.11196899 C-1030.42193986 481.12952143 -1032.22485055 483.06959539 -1034.05712891 484.99609375 C-1034.72486328 485.70121094 -1035.39259766 486.40632813 -1036.08056641 487.1328125 C-1038.11962891 489.27734375 -1038.11962891 489.27734375 -1040.15869141 491.421875 C-1044.59782302 496.10952943 -1048.90819324 500.88423727 -1053.11962891 505.77734375 C-1053.60206055 506.33760254 -1054.08449219 506.89786133 -1054.58154297 507.47509766 C-1055.97182437 509.09448727 -1057.35879266 510.71664901 -1058.74462891 512.33984375 C-1061.94329569 516.08442583 -1065.15005933 519.82054586 -1068.39697266 523.5234375 C-1073.65968751 529.53249247 -1078.80789606 535.57236589 -1083.68212891 541.90234375 C-1095.139575 556.71822246 -1107.69095601 569.50309292 -1124.11962891 578.77734375 C-1124.95236328 579.25042969 -1125.78509766 579.72351563 -1126.64306641 580.2109375 C-1151.62954778 593.53429384 -1181.17248563 594.7974886 -1208.10009766 587.15625 C-1234.46516466 578.55708046 -1257.48686983 560.28994555 -1270.37353516 535.5703125 C-1278.46897269 519.30625833 -1282.51872539 503.21384301 -1282.43212891 485.02734375 C-1282.42648926 483.78815186 -1282.42084961 482.54895996 -1282.41503906 481.2722168 C-1282.29725439 472.39346796 -1281.69811956 464.32041845 -1279.11962891 455.77734375 C-1278.82161377 454.7723584 -1278.82161377 454.7723584 -1278.51757812 453.74707031 C-1272.1629806 432.79355847 -1259.74479036 417.24845206 -1245.74462891 400.87109375 C-1243.28046927 397.98183055 -1240.88301891 395.04215917 -1238.49462891 392.08984375 C-1234.91562768 387.689328 -1231.17170591 383.47901854 -1227.35009766 379.2890625 C-1225.12443539 376.78275631 -1223.0244133 374.20809982 -1220.93212891 371.58984375 C-1216.02611238 365.51983385 -1210.68959378 359.88756899 -1205.33837891 354.2109375 C-1203.00533091 351.73340565 -1200.71779035 349.22968533 -1198.49462891 346.65234375 C-1194.08930646 341.54741674 -1189.48633745 336.62498956 -1184.89500427 331.68815613 C-1183.76205098 330.4687739 -1182.63037618 329.2482017 -1181.50038147 328.02607727 C-1169.64227295 315.21090288 -1157.34617803 302.84810098 -1144.98974609 290.51708984 C-1142.15809989 287.69120278 -1139.33105559 284.86076066 -1136.50525665 282.02902794 C-1134.29358316 279.81372328 -1132.07951217 277.60082707 -1129.86473083 275.38862991 C-1128.82115156 274.3457096 -1127.77829188 273.30206864 -1126.73622131 272.25764084 C-1121.57520544 267.08748672 -1116.39561177 261.98952233 -1110.81921387 257.2628479 C-1109.00195801 255.67449476 -1107.30912428 254.00028295 -1105.61962891 252.27734375 C-1102.69832102 249.31018574 -1099.63971217 246.57675404 -1096.48681641 243.859375 C-1093.48240342 241.21687975 -1090.55228819 238.49894202 -1087.61962891 235.77734375 C-1080.15590129 228.86343032 -1072.4827089 222.21985233 -1064.75146484 215.6081543 C-1060.93437313 212.34177971 -1057.13521265 209.0557892 -1053.34667969 205.75634766 C-1046.70101489 199.97168712 -1039.9733895 194.31518231 -1033.11962891 188.77734375 C-1031.87176511 187.75968814 -1030.6244037 186.7414163 -1029.37744141 185.72265625 C-1017.1056377 175.70525262 -1004.67314835 165.90996944 -992.08984375 156.28662109 C-989.80124584 154.53344733 -987.51735582 152.77420556 -985.23291016 151.015625 C-975.70027213 143.69500949 -966.09560226 136.53346204 -956.23291016 129.6640625 C-953.53725903 127.78389182 -950.86994575 125.8728402 -948.22509766 123.921875 C-934.84791172 114.06704586 -920.99589243 104.93440473 -907.14309692 95.7678833 C-903.12214392 93.10712044 -899.10832331 90.43605165 -895.10014343 87.75608826 C-889.14918093 83.77817265 -883.18168861 79.83457421 -877.11962891 76.02734375 C-876.33821533 75.53548584 -875.55680176 75.04362793 -874.75170898 74.53686523 C-850.800804 59.51377821 -826.50782658 45.00950689 -801.79516602 31.2734375 C-799.95622348 30.24514661 -798.12670839 29.19987007 -796.30541992 28.140625 C-790.72301128 24.95316395 -785.76257744 22.74930149 -779.43212891 21.65234375 C-778.62582031 21.49749512 -777.81951172 21.34264648 -776.98876953 21.18310547 C-774.36953143 20.68963304 -771.74641243 20.22882967 -769.11962891 19.77734375 C-767.81131104 19.55014648 -767.81131104 19.55014648 -766.4765625 19.31835938 C-761.60928347 18.48048385 -756.73715385 17.67624708 -751.86181641 16.88671875 C-747.27691948 16.14074727 -742.70078468 15.3567309 -738.12744141 14.54296875 C-718.45597518 11.05933594 -698.72677702 7.9781153 -678.97615814 4.98163605 C-676.84835782 4.65860294 -674.72070402 4.33461994 -672.59307861 4.01043701 C-645.83052309 -0.06315651 -619.03676962 -3.81153805 -592.11962891 -6.72265625 C-590.17487334 -6.93477916 -588.23013083 -7.1470218 -586.28540039 -7.359375 C-582.3838561 -7.7847021 -578.4820468 -8.20749205 -574.58007812 -8.62890625 C-570.43775673 -9.0773797 -566.29698748 -9.53806199 -562.15689087 -10.00657654 C-503.76703411 -16.60207744 -444.80436257 -20.9713299 -386.05126953 -22.12109375 C-382.42202788 -22.19298216 -378.79333774 -22.27908743 -375.16455078 -22.37109375 C-298.68110067 -24.29573753 -222.21885295 -22.53172144 0 0 Z " fill="#6347DC" transform="translate(1715.11962890625,166.22265625)"/>
<path d="M0 0 C0.67575829 -0.00044186 1.35151657 -0.00088371 2.04775238 -0.00133896 C24.42788828 -0.00899746 46.57675624 0.57824059 68.8125 3.25 C69.87141449 3.37375 69.87141449 3.37375 70.95172119 3.5 C153.54916645 13.17384702 233.98421862 40.58154306 422.875 177.1875 C423.68645981 177.99494156 423.68645981 177.99494156 424.51431274 178.81869507 C430.50075739 184.78261675 436.33446237 190.80964001 441.8125 197.25 C442.84523375 198.41881161 443.8803716 199.58550366 444.91796875 200.75 C461.03881051 218.9854743 474.80277126 237.28349143 480.8125 261.25 C480.99651367 261.9713916 481.18052734 262.6927832 481.37011719 263.43603516 C483.07629875 270.84925718 483.1985091 278.16664776 483.1875 285.75 C483.18618576 286.74294571 483.18618576 286.74294571 483.18484497 287.75595093 C483.0549804 317.55964529 471.45666493 343.74656175 450.31298828 364.73876953 C428.71466392 385.27408911 400.27282335 393.89976834 370.95703125 393.52734375 C346.78689394 392.76670533 325.58149508 383.10316158 306.8125 368.25 C306.15378906 367.74726562 305.49507812 367.24453125 304.81640625 366.7265625 C300.27331014 363.09628247 296.8222783 358.72041624 293.20703125 354.1875 C290.06995358 350.33907845 286.73538028 346.69682159 283.3671875 343.05078125 C281.43043538 340.92746127 279.55027406 338.78160481 277.6796875 336.6015625 C273.4787213 331.78807344 269.00608294 327.25750625 264.48925781 322.74145508 C263.07330053 321.32331716 261.66551711 319.89703335 260.2578125 318.47070312 C254.08715201 312.28715128 247.64488635 306.6855753 240.8125 301.25 C239.50685537 300.16573247 238.20437596 299.07763296 236.90625 297.984375 C183.6281709 253.54949391 116.4752811 225.83038907 47.8125 217.25 C47.136427 217.16386444 46.460354 217.07772888 45.76379395 216.98898315 C31.11304486 215.1715886 16.56294158 214.88856997 1.8125 214.9375 C0.64241394 214.93965515 -0.52767212 214.9418103 -1.73321533 214.94403076 C-19.05479187 214.99520714 -36.06888737 215.36258518 -53.1875 218.25 C-54.41404297 218.45399414 -55.64058594 218.65798828 -56.90429688 218.86816406 C-92.02954536 224.87389968 -126.03634609 234.7334489 -158.1875 250.25 C-158.88198242 250.58209473 -159.57646484 250.91418945 -160.29199219 251.25634766 C-164.96892093 253.50319517 -169.58988046 255.84542022 -174.1875 258.25 C-174.86393555 258.60078613 -175.54037109 258.95157227 -176.23730469 259.31298828 C-201.4846689 272.51234319 -224.91121977 289.34853572 -246.1875 308.25 C-247.1465625 309.09691406 -248.105625 309.94382812 -249.09375 310.81640625 C-261.16503344 321.67724506 -273.22260328 332.98752419 -283.2421875 345.796875 C-286.05326248 349.34176474 -289.10001694 352.65468458 -292.15625 355.98828125 C-293.82018209 357.84100563 -295.34657934 359.72571616 -296.875 361.6875 C-312.60028606 379.94773655 -338.66562866 390.91358612 -362.1875 393.25 C-392.75041705 395.39735737 -420.80390006 387.34592332 -444.1875 367.25 C-445.17943359 366.47462891 -445.17943359 366.47462891 -446.19140625 365.68359375 C-464.78837999 350.69330582 -476.82952294 325.82074434 -479.98461914 302.44189453 C-483.14409881 268.30734762 -474.63609707 239.89069783 -452.74414062 213.51074219 C-446.64455897 206.21461116 -440.32900909 199.12939117 -433.85546875 192.1640625 C-431.89350809 190.02113036 -429.99600353 187.85905839 -428.109375 185.65234375 C-423.58791802 180.4667422 -418.71688199 175.62952025 -413.8449707 170.77709961 C-412.25291034 169.19040054 -410.6662701 167.59842258 -409.08007812 166.00585938 C-403.62021494 160.54242678 -398.06081523 155.27031241 -392.1875 150.25 C-390.41179779 148.63032183 -388.64041693 147.00588282 -386.875 145.375 C-381.47256684 140.45492695 -375.89835243 135.80644987 -370.1875 131.25 C-369.67912598 130.84201172 -369.17075195 130.43402344 -368.64697266 130.01367188 C-346.26453845 112.07485951 -322.74845374 96.04708075 -298.1875 81.25 C-297.38602539 80.76595703 -296.58455078 80.28191406 -295.75878906 79.78320312 C-228.40781792 39.42244853 -151.90815755 14.33987724 -45.1875 1.25 C-44.07463623 1.15428711 -42.96177246 1.05857422 -41.81518555 0.95996094 C-27.90013063 -0.07954648 -13.94655297 0.00418177 0 0 Z " fill="#00C137" transform="translate(1677.1875,981.75)"/>
<path d="M0 0 C0.88993652 0.00966797 1.77987305 0.01933594 2.69677734 0.02929688 C92.54755429 1.07306195 182.68985654 13.78574228 300.81787109 44.32519531 C304.44908274 45.44811644 308.10032634 46.50148566 311.75 47.5625 C319.04788924 49.69998525 326.31476495 51.92974202 333.56347656 54.22851562 C335.36687885 54.79953278 337.17103153 55.36818123 338.97558594 55.93554688 C342.27668642 56.97380426 345.57597629 58.01766421 348.875 59.0625 C349.92107422 59.39096924 350.96714844 59.71943848 352.04492188 60.05786133 C357.72043965 61.86325688 363.26843473 63.83103166 368.77880859 66.09106445 C371.78457773 67.32105769 374.82766115 68.43998142 377.875 69.5625 C411.37448206 82.07554183 443.9408438 96.17539027 476 112 C477.4947791 112.73309854 478.98956886 113.46617535 480.484375 114.19921875 C484.33997778 116.09978581 488.17152462 118.04548963 492 120 C493.33514648 120.67699951 493.33514648 120.67699951 494.69726562 121.36767578 C509.46813898 128.87191955 523.88692707 136.82740163 538.12402344 145.29882812 C540.88664054 146.93294663 543.66261085 148.5410002 546.4453125 150.140625 C561.40666597 158.78012657 575.71537424 168.30158517 590 178 C591.76815729 179.19411685 593.53638056 180.38813601 595.3046875 181.58203125 C617.42170284 196.5647408 638.58669599 212.63017173 659.24267578 229.56298828 C660.85341883 230.8801366 662.47128566 232.18856073 664.08984375 233.49609375 C669.42446804 237.813174 674.59293867 242.2633363 679.66796875 246.8828125 C681.75823889 248.78051169 683.86986115 250.64733415 686 252.5 C703.52440204 267.79908114 721.52975741 283.54057418 736.5703125 301.34765625 C738.90443349 304.04528788 741.4476141 306.50986742 744 309 C743.67 309.66 743.34 310.32 743 311 C742.541698 310.53947739 742.083396 310.07895477 741.61120605 309.60447693 C736.8119252 304.78295793 732.00903706 299.9650536 727.20410156 295.14916992 C725.41477465 293.35483496 723.62634889 291.55960086 721.83886719 289.76342773 C719.25956649 287.17190627 716.67697077 284.58370701 714.09375 281.99609375 C713.30383667 281.20101913 712.51392334 280.40594452 711.70007324 279.58677673 C707.50337866 275.38966517 703.23119589 271.35006229 698.72517395 267.48582458 C696.14807668 265.26627189 693.67623747 262.94318064 691.1875 260.625 C686.56566169 256.35480741 681.80576052 252.31774627 676.90234375 248.37109375 C673.61035835 245.68167903 670.4001898 242.90803185 667.1875 240.125 C660.29640349 234.18536643 653.20706953 228.5495634 646 223 C644.84153564 222.1025708 644.84153564 222.1025708 643.65966797 221.18701172 C614.8015353 198.84795089 584.48390719 178.45924639 553 160 C552.29375488 159.58379395 551.58750977 159.16758789 550.85986328 158.73876953 C500.05245945 128.89915247 446.69663705 105.10511311 391 86 C390.02250793 85.66385681 390.02250793 85.66385681 389.02526855 85.32092285 C326.28432176 63.79437965 260.45528452 50.94804791 194.5 44.6875 C193.64338776 44.60609772 192.78677551 44.52469543 191.90420532 44.44082642 C107.95213746 36.57536348 22.82895494 42.04393444 -303 149 C-304.67447625 149.93774645 -306.34895898 150.87548137 -308.02362061 151.81289673 C-323.3318 160.39374674 -338.32849807 169.36075235 -353 179 C-353.89299805 179.58523438 -354.78599609 180.17046875 -355.70605469 180.7734375 C-374.21074891 192.92854679 -392.1122171 205.69116025 -409.65429688 219.19775391 C-411.685498 220.75836243 -413.72291407 222.30998191 -415.765625 223.85546875 C-422.31381915 228.82091036 -428.63449156 234.00122444 -434.875 239.34375 C-437.75080959 241.80164637 -440.68065883 244.18695201 -443.625 246.5625 C-448.38950808 250.43929769 -452.9364389 254.51471532 -457.45703125 258.671875 C-459.57067054 260.60694262 -461.70659848 262.50208297 -463.875 264.375 C-475.51727464 274.53423178 -486.49606125 285.33744173 -497.40429688 296.27392578 C-499.88818449 298.76321315 -502.37742683 301.24705702 -504.8671875 303.73046875 C-506.47167518 305.33561669 -508.07585292 306.9410745 -509.6796875 308.546875 C-510.77831619 309.64246735 -510.77831619 309.64246735 -511.8991394 310.76019287 C-515.92027917 314.7994848 -519.77528424 318.92925938 -523.49041748 323.25230408 C-525.72070057 325.83437999 -528.04946187 328.31586372 -530.375 330.8125 C-534.63878004 335.42739769 -538.66905262 340.18110926 -542.61328125 345.07421875 C-546.86722491 350.28895492 -551.27593969 355.37173711 -555.67529297 360.46386719 C-556.78942553 361.75581744 -557.89739277 363.0530808 -559.00390625 364.3515625 C-574.46962138 382.36499404 -593.04527169 394.02824302 -616 400 C-616.85464844 400.23332031 -617.70929688 400.46664063 -618.58984375 400.70703125 C-645.26258645 407.04465729 -672.50208767 401.07550405 -696 388 C-696.96292969 387.47921875 -697.92585937 386.9584375 -698.91796875 386.421875 C-711.85046927 378.85722181 -722.79931387 367.43491795 -731 355 C-731.61101563 354.09378906 -732.22203125 353.18757813 -732.8515625 352.25390625 C-747.83513584 328.45840761 -752.15123144 297.99648689 -746.03515625 270.6875 C-740.75147925 251.86564684 -732.20288571 236.62594666 -719.53369141 221.80566406 C-717.39151883 219.28361561 -715.32367297 216.70347253 -713.25 214.125 C-709.71534605 209.80343404 -706.01689549 205.66198984 -702.25390625 201.5390625 C-699.89440487 198.88104535 -697.66275885 196.14607706 -695.4375 193.375 C-692.1333951 189.28940246 -688.67047644 185.55464546 -684.90234375 181.8984375 C-682.36168804 179.36299874 -680.05351051 176.65408365 -677.71484375 173.93359375 C-675.52931636 171.46927471 -673.19594749 169.18220548 -670.84474182 166.87742615 C-669.05559205 165.056577 -667.38982424 163.17748106 -665.73022461 161.23852539 C-662.24123223 157.22748209 -658.58057746 153.43541284 -654.81640625 149.68359375 C-654.15720688 149.02343765 -653.49800751 148.36328156 -652.8188324 147.68312073 C-651.43603165 146.29964494 -650.05198924 144.91740917 -648.66674805 143.53637695 C-646.56769657 141.44268331 -644.4740406 139.34370126 -642.38085938 137.24414062 C-641.02636214 135.89030429 -639.67155469 134.53677825 -638.31640625 133.18359375 C-637.70156876 132.56673203 -637.08673126 131.9498703 -636.45326233 131.3143158 C-632.69809118 127.57895717 -628.82584321 124.05162772 -624.77964783 120.63270569 C-622.99650923 118.99679745 -621.55042672 117.27872793 -620.0625 115.375 C-615.08127796 110.24457085 -607.65013439 109.28633172 -600.96337891 107.54541016 C-598.52014075 106.86669913 -596.21031713 105.98515059 -593.875 105 C-589.60186639 103.20599019 -585.27130503 101.72021197 -580.8671875 100.27954102 C-572.44011474 97.51055768 -564.06948246 94.57466845 -555.6940918 91.65380859 C-548.81656501 89.26838317 -541.91829451 87.0085483 -534.95214844 84.89575195 C-531.66622217 83.89872388 -528.39376969 82.86355629 -525.12207031 81.82104492 C-514.45156303 78.42122191 -503.74041387 75.17136144 -493 72 C-491.85450684 71.6606543 -490.70901367 71.32130859 -489.52880859 70.97167969 C-474.49816095 66.52790437 -459.45400168 62.22550913 -444.25561523 58.38305664 C-438.85472601 57.01598741 -433.48536062 55.58177217 -428.1328125 54.03515625 C-395.52256305 44.63761579 -362.14944618 37.99250769 -328.91064453 31.25756836 C-321.25657512 29.72241807 -321.25657512 29.72241807 -313.66796875 27.8984375 C-309.18207329 26.79965586 -304.69566239 26.13695295 -300.125 25.5 C-295.25885027 24.81558018 -290.41780882 24.11451344 -285.60546875 23.11328125 C-192.07282529 3.91543322 -95.21558341 -1.06438594 0 0 Z " fill="#5947DC" transform="translate(1563,664)"/>
<path d="M0 0 C2.14401895 -0.00535597 4.28801361 -0.01347281 6.43202209 -0.02197647 C25.69488237 -0.08712644 44.73233217 0.63515545 63.93824768 2.24453354 C64.9650061 2.32923904 65.99176453 2.41394455 67.04963684 2.50121689 C78.67923794 3.46825093 90.13771473 4.92373529 101.64381409 6.86660385 C103.85771108 7.23126788 106.07371462 7.56775103 108.29371643 7.89297104 C136.28254548 12.0281068 164.10770203 17.96630906 191.12623596 26.37490463 C194.28715826 27.35243591 197.45408364 28.3089235 200.62184143 29.26406479 C202.93573029 29.96560155 205.24953325 30.66742171 207.56324768 31.36953354 C208.64179016 31.69413559 209.72033264 32.01873764 210.83155823 32.35317612 C216.4458307 34.06948339 221.91477819 35.94359309 227.34205627 38.18154526 C230.25341484 39.37357603 233.18633657 40.49849956 236.12574768 41.61953354 C252.38548431 47.86409387 268.24052523 54.68073991 283.93824768 62.24453354 C285.01848206 62.76273666 286.09871643 63.28093979 287.21168518 63.81484604 C303.24487928 71.54581611 318.73069681 79.99680808 333.93824768 89.24453354 C335.20789368 90.01579575 335.20789368 90.01579575 336.50318909 90.80263901 C355.10314006 102.17277017 372.77926085 114.81182488 389.93824768 128.24453354 C390.85734924 128.95996323 391.77645081 129.67539291 392.72340393 130.41250229 C399.97996116 136.13515311 406.94860729 142.20161678 413.93824768 148.24453354 C409.47255016 148.24453354 407.18199076 145.33682306 403.93824768 142.55703354 C351.86196962 99.1581431 284.90767893 72.61331451 217.93824768 64.24453354 C217.26217468 64.15839798 216.58610168 64.07226242 215.88954163 63.98351669 C201.23879254 62.16612214 186.68868926 61.88310351 171.93824768 61.93203354 C170.76816162 61.93418869 169.59807556 61.93634384 168.39253235 61.9385643 C151.07095581 61.98974068 134.05686031 62.35711872 116.93824768 65.24453354 C115.71170471 65.44852768 114.48516174 65.65252182 113.22145081 65.8626976 C78.09620232 71.86843322 44.0894016 81.72798244 11.93824768 97.24453354 C11.24376526 97.57662827 10.54928284 97.90872299 9.83375549 98.2508812 C5.15682675 100.49772871 0.53586722 102.83995376 -4.06175232 105.24453354 C-4.73818787 105.59531967 -5.41462341 105.9461058 -6.11155701 106.30752182 C-31.35892122 119.50687673 -54.78547209 136.34306926 -76.06175232 155.24453354 C-77.50034607 156.51490463 -77.50034607 156.51490463 -78.96800232 157.81093979 C-91.03928576 168.6717786 -103.0968556 179.98205773 -113.11643982 192.79140854 C-115.9275148 196.33629828 -118.97426926 199.64921812 -122.03050232 202.98281479 C-123.69443441 204.83553917 -125.22083166 206.7202497 -126.74925232 208.68203354 C-142.47453838 226.94227009 -168.53988098 237.90811966 -192.06175232 240.24453354 C-222.62466936 242.39189091 -250.67815238 234.34045686 -274.06175232 214.24453354 C-275.05368591 213.46916245 -275.05368591 213.46916245 -276.06565857 212.67812729 C-294.66263231 197.68783936 -306.70377526 172.81527788 -309.85887146 149.43642807 C-312.8101869 117.5508564 -305.96785439 88.98401188 -285.47679138 63.94765854 C-281.51739551 59.18217448 -277.51194835 54.45206809 -273.3891449 49.82680893 C-271.84621678 48.05038829 -271.84621678 48.05038829 -269.99143982 45.08828354 C-266.17855209 40.51928206 -260.00868531 39.65263507 -254.49925232 38.18203354 C-252.69291321 37.67398178 -252.69291321 37.67398178 -250.8500824 37.15566635 C-242.94922013 34.95565188 -235.01285321 32.86730346 -227.03416443 30.96694565 C-222.57640125 29.90481254 -218.1927734 28.69640473 -213.80003357 27.38906479 C-204.33122924 24.65822979 -194.70218356 22.70278354 -185.06175232 20.68203354 C-183.22051008 20.29251501 -181.37936367 19.90254324 -179.53831482 19.51211166 C-175.97921311 18.75762933 -172.41922167 18.00756167 -168.85862732 17.26015854 C-164.8571981 16.41789692 -160.86589267 15.53441944 -156.87425232 14.64687729 C-148.65539535 12.88733204 -140.37213918 11.60854969 -132.06175232 10.36953354 C-131.21281403 10.24235947 -130.36387573 10.11518539 -129.48921204 9.98415756 C-107.75219616 6.75188381 -85.9368222 4.32231269 -64.06175232 2.24453354 C-62.98446869 2.13948502 -62.98446869 2.13948502 -61.88542175 2.0323143 C-41.30040545 0.03211774 -20.66166632 0.04612774 0 0 Z " fill="#5B47DC" transform="translate(1507.061752319336,1134.7554664611816)"/>
<path d="M0 0 C1.16004562 0.94675015 2.3202082 1.89335701 3.48046875 2.83984375 C10.95957851 9.01885034 17.81438756 15.4953232 24 23 C24.64267822 23.77706299 24.64267822 23.77706299 25.29833984 24.56982422 C49.59357751 54.4314279 61.97763235 94.434046 58.19311523 132.74633789 C57.58064475 138.18314287 56.83395624 143.5929921 56 149 C55.86996582 149.84336914 55.73993164 150.68673828 55.60595703 151.55566406 C52.89619845 168.00752318 46.24983187 183.53829996 38.3125 198.125 C37.96872314 198.76969238 37.62494629 199.41438477 37.27075195 200.07861328 C34.08317945 205.64876244 30.4150593 208.17130318 24.4140625 210.23046875 C23.16367188 210.54628906 21.91328125 210.86210938 20.625 211.1875 C19.37976562 211.51105469 18.13453125 211.83460938 16.8515625 212.16796875 C1.58821038 215.46522433 -15.78523075 215.42479929 -31 212 C-32.17175781 211.75507812 -33.34351563 211.51015625 -34.55078125 211.2578125 C-60.5918568 205.14640744 -83.52359134 187.52875929 -98.0703125 165.26953125 C-101.37873979 159.66395708 -104.28702096 153.91794909 -107 148 C-107.50789063 146.89785156 -108.01578125 145.79570313 -108.5390625 144.66015625 C-110.22647816 140.4325935 -111.41123616 136.22581986 -112.5 131.8125 C-112.71720703 130.94318848 -112.93441406 130.07387695 -113.15820312 129.17822266 C-114.62169653 123.10909368 -115.66436775 117.05867866 -116.5 110.875 C-118.98597739 92.86750938 -123.49204964 76.7282382 -136 63 C-136 62.34 -136 61.68 -136 61 C-136.58523438 60.72800781 -137.17046875 60.45601562 -137.7734375 60.17578125 C-139.96149162 59.02033513 -141.70278698 57.73753986 -143.625 56.1875 C-148.10592922 52.77266547 -152.84650874 50.25465242 -158 48 C-158.57782227 47.74686035 -159.15564453 47.4937207 -159.75097656 47.23291016 C-165.03232993 45.07043505 -170.08449455 44.24539223 -175.75 43.75 C-176.6354248 43.67136719 -177.52084961 43.59273437 -178.43310547 43.51171875 C-200.48722734 41.73608954 -219.59360717 49.73798642 -237 63 C-235.13328738 56.67391835 -232.65215456 51.28134488 -229.39453125 45.55078125 C-227.87864831 42.91455104 -227.87864831 42.91455104 -226.6875 39.5625 C-222.10497201 29.88827424 -214.30093026 21.72213777 -207 14 C-206.30390625 13.25105469 -205.6078125 12.50210937 -204.890625 11.73046875 C-152.83632921 -42.50858763 -57.78135667 -48.51076556 0 0 Z " fill="#00C037" transform="translate(1774,1489)"/>
<path d="M0 0 C5.13995387 1.4731332 9.3363979 3.76163141 13.875 6.5 C14.60517334 6.93489746 15.33534668 7.36979492 16.08764648 7.81787109 C23.79592906 12.43076673 31.40858739 17.19789512 39 22 C38.01 22.495 38.01 22.495 37 23 C34.66845703 21.93945312 34.66845703 21.93945312 31.7578125 20.28125 C30.69046875 19.67796875 29.623125 19.0746875 28.5234375 18.453125 C27.40195313 17.80859375 26.28046875 17.1640625 25.125 16.5 C24.0421875 15.88640625 22.959375 15.2728125 21.84375 14.640625 C19.65932378 13.3998292 17.47864722 12.15240905 15.30175781 10.8984375 C13.04165203 9.59892681 10.77760592 8.31230994 8.50292969 7.0390625 C7.40625977 6.41773438 6.30958984 5.79640625 5.1796875 5.15625 C3.68671143 4.31803711 3.68671143 4.31803711 2.16357422 3.46289062 C1.44959473 2.98013672 0.73561523 2.49738281 0 2 C0 1.34 0 0.68 0 0 Z " fill="#4C4DD3" transform="translate(2326,376)"/>
<path d="M0 0 C2.95399506 1.35153828 5.23557476 2.8967985 7.671875 5.0390625 C8.33574219 5.61914062 8.99960938 6.19921875 9.68359375 6.796875 C10.36550781 7.40015625 11.04742188 8.0034375 11.75 8.625 C12.44738281 9.23601562 13.14476562 9.84703125 13.86328125 10.4765625 C15.5788674 11.98063803 17.29093409 13.48852498 19 15 C15.46514064 15 14.87597293 14.39522133 12.20703125 12.2265625 C11.49482422 11.6490625 10.78261719 11.0715625 10.04882812 10.4765625 C9.31083984 9.86554688 8.57285156 9.25453125 7.8125 8.625 C7.06291016 8.02171875 6.31332031 7.4184375 5.54101562 6.796875 C1.43550064 3.43476081 1.43550064 3.43476081 0 2 C0 1.34 0 0.68 0 0 Z " fill="#4B50D0" transform="translate(1902,1268)"/>
<path d="M0 0 C0.66 0 1.32 0 2 0 C0.25 3.875 0.25 3.875 -2 5 C-1.125 1.125 -1.125 1.125 0 0 Z " fill="#129E5D" transform="translate(1576,1494)"/>
</svg>
